<svg viewBox="0 0 333 502" xmlns="http://www.w3.org/2000/svg" xmlns:xlink="http://www.w3.org/1999/xlink">
  <defs>
    <path d="M24 45c-6-3-10-8-10-14-2 0-3-2-3-4v-4c0-2 1-3 3-4v-2a17 17 0 1 1 34 0v2c2 1 4 2 4 4v4c0 2-2 4-4 4 0 6-4 11-9 14v6c13 1 23 11 23 25H0c0-14 10-24 24-25v-6z" id="a"/>
    <path d="M49 9c13 1 23 12 23 25H10c0-13 10-24 23-25v1c0 4 3 8 8 8s8-4 8-8V9z" id="c"/>
    <path d="M9 5c1 3 4 6 8 6s7-3 8-6l-1-1H10L9 5z" id="e"/>
    <path id="g" d="M0 0h82v87H0z"/>
    <path d="M49 56c5-2 9-8 10-14 1 0 3-2 3-4v-4c0-2-2-3-3-3v-2l-2-7c-3-6-29-5-32 0l-1 7v2c-2 0-3 1-3 3v4c0 2 1 4 3 4 0 6 4 12 10 14v6c-14 1-24 12-24 25H0V0h82v87H72c0-13-10-24-23-25v-6z" id="i"/>
    <path d="M21 40c-5-2-8-7-9-12l-2-4v-3l2-4v-1a16 16 0 1 1 32 0v1c1 1 3 2 3 4v3c0 2-2 4-3 4-1 5-4 10-9 12v5c12 1 21 11 21 23H0c0-12 9-22 21-23v-5z" id="k"/>
    <path d="M47 9c10 2 18 11 18 22H9c0-11 8-20 18-22 0 2 1 3 3 5l4 4h6l4-4a9 9 0 0 0 3-5z" id="m"/>
    <path id="o" d="M0 0h74v78H0z"/>
    <path d="M49 46l1 2h4v1a11 11 0 0 1-4 1h-1v1h4v1a12 12 0 0 1-3 1l-5-1-1-1v-1l5-4zm-26-4c1 4 4 7 8 8v3h-2c-3 1-10-1-13-3v-1c3 0 5-3 6-5l1-2zm32-23v5l-2 4c-1-4-5-6-8-8l2 3c-2-2-5-4-6-7l-2 4-3 3 2-5-3 5a21 21 0 0 1-3 3s-1 1 0 0l-3 2-2 2-7 1h2l1-1 3-2-2 1-2 1-5-1-3-4 1-6 2 1c3-1 5-11 12-13 5-1 9 1 10 1h6c2 1 4 1 5 3 3 2 5 5 5 8z" id="q"/>
    <path d="M29 54c-7-3-12-9-12-17-3 0-4-2-4-4v-5c0-2 1-4 4-5v-2a21 21 0 0 1 42 0v2c2 1 3 3 3 5v5c0 2-1 4-4 4 0 8-5 14-11 17v7c15 1 28 14 28 31H0c0-17 13-30 29-31v-7z" id="s"/>
    <path d="M68 13c11 5 19 15 19 28H12c0-13 8-24 19-28v1c0 6 8 11 19 11 10 0 18-5 18-11v-1z" id="u"/>
    <path d="M13 6c1 4 4 6 8 6 3 0 6-3 7-6l-1-1H14l-1 1z" id="w"/>
    <path id="y" d="M0 0h99v105H0z"/>
    <path d="M50 31a20 20 0 0 1-1-1c-5-2-10-6-13-12l-3-6c-3 4-8 8-13 11-4 3-8 4-11 5v23c2 5 6 8 10 10v7h-2l-8 1v17c0 6-4 10-9 11V28a28 28 0 0 1 56 0v46c-5-4-11-6-18-6h-1v-7c6-3 11-10 12-17 2 0 4-2 4-5v-4c0-2-1-4-3-4z" id="A"/>
    <filter x="-2.1%" y="-7.1%" width="106.3%" height="135.0%" filterUnits="objectBoundingBox" id="C">
      <feOffset dy="2" in="SourceAlpha" result="shadowOffsetOuter1"/>
      <feColorMatrix values="0 0 0 0 0 0 0 0 0 0 0 0 0 0 0 0 0 0 0.1 0" in="shadowOffsetOuter1" result="shadowMatrixOuter1"/>
      <feMerge>
        <feMergeNode in="shadowMatrixOuter1"/>
        <feMergeNode in="SourceGraphic"/>
      </feMerge>
    </filter>
    <linearGradient x1="50%" y1="0%" x2="50%" y2="70.5058195%" id="E">
      <stop stop-color="#FFF" stop-opacity="0.5" offset="0%"/>
      <stop stop-opacity="0.5" offset="100%"/>
    </linearGradient>
    <path d="M18 2l1 1v4l-2 4a6 6 0 0 1-3 1H9c-2-1-3-3-3-5V3l12-1z" id="D"/>
    <linearGradient x1="50%" y1="0%" x2="50%" y2="100%" id="G">
      <stop stop-color="#FFF" stop-opacity="0.5" offset="0%"/>
      <stop stop-opacity="0.5" offset="70.5058195%"/>
    </linearGradient>
    <path d="M29 2l-1 1v4l2 4a6 6 0 0 0 3 1h5c2-1 3-3 3-5V3L29 2z" id="F"/>
    <text id="I" font-family="MarkerFelt-Thin, Marker Felt" font-size="36" font-weight="300" fill="#FFF">
      <tspan x="238" y="71">.com</tspan>
    </text>
    <filter x="-9.2%" y="-15.4%" width="118.5%" height="130.8%" filterUnits="objectBoundingBox" id="H">
      <feOffset in="SourceAlpha" result="shadowOffsetOuter1"/>
      <feGaussianBlur stdDeviation="2" in="shadowOffsetOuter1" result="shadowBlurOuter1"/>
      <feColorMatrix values="0 0 0 0 0 0 0 0 0 0 0 0 0 0 0 0 0 0 0.5 0" in="shadowBlurOuter1"/>
    </filter>
    <text id="K" font-family="MarkerFelt-Thin, Marker Felt" font-size="36" font-weight="300" fill="#FFF">
      <tspan x="28" y="51">Where To Next</tspan>
    </text>
    <filter x="-2.9%" y="-15.4%" width="105.7%" height="130.8%" filterUnits="objectBoundingBox" id="J">
      <feOffset in="SourceAlpha" result="shadowOffsetOuter1"/>
      <feGaussianBlur stdDeviation="2" in="shadowOffsetOuter1" result="shadowBlurOuter1"/>
      <feColorMatrix values="0 0 0 0 0 0 0 0 0 0 0 0 0 0 0 0 0 0 0.5 0" in="shadowBlurOuter1"/>
    </filter>
    <path id="M" d="M19 192h295v40H19z"/>
    <filter x="-0.7%" y="-5.0%" width="101.4%" height="110.0%" filterUnits="objectBoundingBox" id="L">
      <feGaussianBlur stdDeviation="1.5" in="SourceAlpha" result="shadowBlurInner1"/>
      <feOffset dy="1" in="shadowBlurInner1" result="shadowOffsetInner1"/>
      <feComposite in="shadowOffsetInner1" in2="SourceAlpha" operator="arithmetic" k2="-1" k3="1" result="shadowInnerInner1"/>
      <feColorMatrix values="0 0 0 0 0 0 0 0 0 0 0 0 0 0 0 0 0 0 0.5 0" in="shadowInnerInner1"/>
    </filter>
    <path id="O" d="M19 394h295v40H19z"/>
    <filter x="-0.7%" y="-5.0%" width="101.4%" height="110.0%" filterUnits="objectBoundingBox" id="N">
      <feGaussianBlur stdDeviation="1.5" in="SourceAlpha" result="shadowBlurInner1"/>
      <feOffset dy="1" in="shadowBlurInner1" result="shadowOffsetInner1"/>
      <feComposite in="shadowOffsetInner1" in2="SourceAlpha" operator="arithmetic" k2="-1" k3="1" result="shadowInnerInner1"/>
      <feColorMatrix values="0 0 0 0 0 0 0 0 0 0 0 0 0 0 0 0 0 0 0.5 0" in="shadowInnerInner1"/>
    </filter>
    <path id="Q" d="M19 293h244v40H19z"/>
    <filter x="-0.8%" y="-5.0%" width="101.6%" height="110.0%" filterUnits="objectBoundingBox" id="P">
      <feGaussianBlur stdDeviation="1.5" in="SourceAlpha" result="shadowBlurInner1"/>
      <feOffset dy="1" in="shadowBlurInner1" result="shadowOffsetInner1"/>
      <feComposite in="shadowOffsetInner1" in2="SourceAlpha" operator="arithmetic" k2="-1" k3="1" result="shadowInnerInner1"/>
      <feColorMatrix values="0 0 0 0 0 0 0 0 0 0 0 0 0 0 0 0 0 0 0.5 0" in="shadowInnerInner1"/>
    </filter>
    <path id="S" d="M274 293h40v40h-40z"/>
    <filter x="-7.5%" y="-7.5%" width="115.0%" height="115.0%" filterUnits="objectBoundingBox" id="R">
      <feOffset in="SourceAlpha" result="shadowOffsetOuter1"/>
      <feGaussianBlur stdDeviation="1" in="shadowOffsetOuter1" result="shadowBlurOuter1"/>
      <feComposite in="shadowBlurOuter1" in2="SourceAlpha" operator="out" result="shadowBlurOuter1"/>
      <feColorMatrix values="0 0 0 0 0 0 0 0 0 0 0 0 0 0 0 0 0 0 0.5 0" in="shadowBlurOuter1"/>
    </filter>
    <path id="U" d="M274 394h40v40h-40z"/>
    <filter x="-7.5%" y="-7.5%" width="115.0%" height="115.0%" filterUnits="objectBoundingBox" id="T">
      <feOffset in="SourceAlpha" result="shadowOffsetOuter1"/>
      <feGaussianBlur stdDeviation="1" in="shadowOffsetOuter1" result="shadowBlurOuter1"/>
      <feComposite in="shadowBlurOuter1" in2="SourceAlpha" operator="out" result="shadowBlurOuter1"/>
      <feColorMatrix values="0 0 0 0 0 0 0 0 0 0 0 0 0 0 0 0 0 0 0.5 0" in="shadowBlurOuter1"/>
    </filter>
    <path id="W" d="M0 0h295v40H0z"/>
    <filter x="-1.0%" y="-7.5%" width="102.0%" height="115.0%" filterUnits="objectBoundingBox" id="V">
      <feOffset in="SourceAlpha" result="shadowOffsetOuter1"/>
      <feGaussianBlur stdDeviation="1" in="shadowOffsetOuter1" result="shadowBlurOuter1"/>
      <feComposite in="shadowBlurOuter1" in2="SourceAlpha" operator="out" result="shadowBlurOuter1"/>
      <feColorMatrix values="0 0 0 0 0 0 0 0 0 0 0 0 0 0 0 0 0 0 0.5 0" in="shadowBlurOuter1"/>
    </filter>
  </defs>
  <g fill="none" fill-rule="evenodd">
    <path fill="#FF7676" d="M0 0h333v139H0z"/>
    <g transform="translate(82 63)">
      <mask id="b" fill="#fff">
        <use xlink:href="#a"/>
      </mask>
      <use fill="#D0C6AC" xlink:href="#a"/>
      <g mask="url(#b)" fill="#614335">
        <path d="M-10 0h82v76h-82z"/>
      </g>
      <path d="M48 29v3a17 17 0 0 1-34 0v-3a17 17 0 0 0 34 0z" fill-opacity="0.100000001" fill="#000" mask="url(#b)"/>
    </g>
    <g transform="translate(72 105)">
      <mask id="d" fill="#fff">
        <use xlink:href="#c"/>
      </mask>
      <use fill="#E6E6E6" xlink:href="#c"/>
      <g mask="url(#d)" fill="#FFFFB1">
        <path d="M0 0h82v34H0z"/>
      </g>
      <path d="M51 9c12 2 21 13 21 25H51a48 48 0 0 0 0-25zM31 34H10c0-13 9-23 21-25a48 48 0 0 0 0 25z" fill="#3A4C5A"/>
      <path d="M56 27l2-1h5l-7 1z" fill="#E6E6E6"/>
      <path d="M31 9c-1 6 0 14 2 25h-5l-4-11 1-3-1-2 6-9h1z" fill="#2F4351"/>
      <path d="M51 9c1 6 0 14-2 25h5l4-11-1-3 1-2-6-9h-1z" fill="#2F4351"/>
      <path d="M48 7c3 1 4 3 4 5 0 3-2 5-4 6l-2-1h-1v-1c2-1 3-3 3-5V7zM34 7v4c0 2 1 4 3 5v1h-1l-2 1c-2-1-4-3-4-6 0-2 1-4 4-5z" fill="#F2F2F2"/>
    </g>
    <g transform="translate(96 94)">
      <mask id="f" fill="#fff">
        <use xlink:href="#e"/>
      </mask>
      <use fill-opacity="0.699999988" fill="#000" xlink:href="#e"/>
      <rect fill="#FFF" mask="url(#f)" x="12.2777778" y="0.636363636" width="9.75925926" height="5.09090909" rx="2.54545455"/>
      <path d="M21 8v3c0 1-2 3-4 3s-3-2-3-3V7l2-1 1 1 2-1 2 1v1z" fill="#FF4F6D"/>
    </g>
    <path d="M109 92c0 2 2 3 4 3s3-1 3-3" fill="#000" fill-opacity="0.16"/>
    <g transform="translate(96 80)" fill="#000" fill-opacity="0.599999964">
      <ellipse cx="9.375" cy="7" rx="1.875" ry="1.90909091"/>
      <ellipse cx="25.625" cy="7" rx="1.875" ry="1.90909091"/>
    </g>
    <g fill-rule="nonzero" fill="#000" fill-opacity="0.599999964">
      <path d="M100 82c2-1 5-2 8-1l1-1h-1c-3-1-7 0-9 2l1 1v-1z"/>
      <path d="M126 82c-2-1-5-2-8-1l-1-1h1c3-1 7 0 9 2v1l-1-1z"/>
    </g>
    <g transform="translate(72 52)">
      <mask id="h" fill="#fff">
        <use xlink:href="#g"/>
      </mask>
      <g mask="url(#h)">
        <mask id="j" fill="#fff">
          <use xlink:href="#i"/>
        </mask>
        <path d="M41 1c8 0 14 5 16 12l2 10H23l3-10c1-7 8-12 15-12z" fill="#1F333C" mask="url(#j)"/>
        <ellipse fill="#1F333C" mask="url(#j)" cx="41.1879699" cy="27.1875" rx="38.0676692" ry="17.8660714"/>
        <ellipse fill="#15232A" mask="url(#j)" cx="41.1879699" cy="25.4785714" rx="19.3458647" ry="7.76785714"/>
      </g>
    </g>
    <g transform="translate(188 71)">
      <mask id="l" fill="#fff">
        <use xlink:href="#k"/>
      </mask>
      <use fill="#D0C6AC" xlink:href="#k"/>
      <g mask="url(#l)" fill="#D08B5B">
        <path d="M-9 0h74v68H-9z"/>
      </g>
      <path d="M44 26v2a16 16 0 1 1-32 0v-2a16 16 0 1 0 32 0z" fill-opacity="0.100000001" fill="#000" mask="url(#l)"/>
    </g>
    <g transform="translate(179 108)">
      <mask id="n" fill="#fff">
        <use xlink:href="#m"/>
      </mask>
      <use fill="#E6E6E6" xlink:href="#m"/>
      <g mask="url(#n)" fill="#E6E6E6">
        <path d="M0 0h74v31H0z"/>
      </g>
    </g>
    <g fill="#000">
      <path d="M212 103l4 2 4-2-1-1v1l-3 1-3-1v-1l-1 1z" fill-opacity="0.599999964" fill-rule="nonzero"/>
      <path d="M213 97c0 2 1 3 3 3s4-1 4-3" fill-opacity="0.16"/>
      <g transform="translate(200 86)" fill-opacity="0.599999964">
        <ellipse cx="8.30357143" cy="6" rx="1.66071429" ry="1.63636364"/>
        <path d="M20 7l2-2 4 1-1 1-3-1-2 1s-1 0 0 0z"/>
      </g>
      <g fill-rule="nonzero" fill-opacity="0.599999964">
        <path d="M205 89c1-2 4-3 6-2h1v-1c-3-1-7 0-8 2v1h1z"/>
        <path d="M227 89c-1-2-4-3-7-2v-1c3-1 7 0 8 2v1h-1z"/>
      </g>
    </g>
    <g transform="translate(179 61)">
      <mask id="p" fill="#fff">
        <use xlink:href="#o"/>
      </mask>
      <g mask="url(#p)">
        <mask id="r" fill="#fff">
          <use xlink:href="#q"/>
        </mask>
        <use fill="#1D2633" xlink:href="#q"/>
        <g mask="url(#r)">
          <path d="M0 0h74v78H0z" fill="#724133"/>
        </g>
        <path d="M49 46l1 2h4v1a11 11 0 0 1-4 1h-1v1h4v1a12 12 0 0 1-3 1l-5-1-1-1v-1l5-4zm-26-4c1 4 4 7 8 8v3h-2c-3 1-10-1-13-3v-1c3 0 5-3 6-5l1-2z" fill-opacity="0.16" fill="#000"/>
      </g>
    </g>
    <g transform="translate(129 48)">
      <mask id="t" fill="#fff">
        <use xlink:href="#s"/>
      </mask>
      <use fill="#D0C6AC" xlink:href="#s"/>
      <g mask="url(#t)" fill="#EDB98A">
        <path d="M-12 0h99v92h-99z"/>
      </g>
      <path d="M59 35v3a21 21 0 0 1-42 0v-3a21 21 0 0 0 42 0z" fill-opacity="0.100000001" fill="#000" mask="url(#t)"/>
    </g>
    <g transform="translate(117 98)">
      <mask id="v" fill="#fff">
        <use xlink:href="#u"/>
      </mask>
      <use fill="#E6E6E6" xlink:href="#u"/>
      <g mask="url(#v)" fill="#262E33">
        <path d="M0 0h99v41H0z"/>
      </g>
    </g>
    <g transform="translate(146 84)">
      <mask id="x" fill="#fff">
        <use xlink:href="#w"/>
      </mask>
      <use fill-opacity="0.699999988" fill="#000" xlink:href="#w"/>
      <rect fill="#FFF" mask="url(#x)" x="14.8055556" y="0.772727273" width="11.7685185" height="6.18181818" rx="3.09090909"/>
      <g mask="url(#x)" fill="#FF4F6D">
        <g transform="translate(14 9)">
          <ellipse cx="4.17592593" cy="4.25" rx="4.17592593" ry="4.25"/>
          <ellipse cx="7.97222222" cy="4.25" rx="4.17592593" ry="4.25"/>
        </g>
      </g>
    </g>
    <path d="M162 83c0 1 2 3 5 3 2 0 4-2 4-3" fill="#000" fill-opacity="0.16"/>
    <g transform="translate(146 68)" fill="#000" fill-opacity="0.599999964">
      <ellipse cx="11.25" cy="8.5" rx="2.25" ry="2.31818182"/>
      <ellipse cx="30.75" cy="8.5" rx="2.25" ry="2.31818182"/>
    </g>
    <g fill-rule="nonzero" fill="#000" fill-opacity="0.599999964">
      <path d="M151 71c2-2 6-3 9-2a1 1 0 0 0 1-2c-4-1-9 1-11 3a1 1 0 0 0 1 1z"/>
      <path d="M182 71c-2-2-6-3-9-2a1 1 0 0 1-1-2c4-1 9 1 11 3a1 1 0 0 1-1 1z"/>
    </g>
    <g transform="translate(117 34)">
      <mask id="z" fill="#fff">
        <use xlink:href="#y"/>
      </mask>
      <g mask="url(#z)">
        <g transform="translate(22 7)">
          <mask id="B" fill="#fff">
            <use xlink:href="#A"/>
          </mask>
          <use fill="#944F23" xlink:href="#A"/>
          <g mask="url(#B)" fill="#ECDCBF">
            <path d="M-22-7h99V98h-99z"/>
          </g>
        </g>
        <path d="M72 37l5 1v43c-4-4-10-6-17-6h-1v-7c6-3 11-10 12-17 2-1 3-3 3-5v-5l-2-4zm-1 0zM31 58c2 4 5 8 10 10v7h-2l-8 1V58z" fill-opacity="0.24" fill="#000"/>
        <g filter="url(#C)" transform="translate(26 35)">
          <use fill-opacity="0.700000048" fill="#000" xlink:href="#D"/>
          <use fill="url(#E)" style="mix-blend-mode:screen" xlink:href="#D"/>
          <use fill-opacity="0.700000048" fill="#000" xlink:href="#F"/>
          <use fill="url(#G)" style="mix-blend-mode:screen" xlink:href="#F"/>
          <g fill="#252C2F">
            <path d="M17 3l2 1v3l-2 3a6 6 0 0 1-3 2h-1l-4-1-3-4 1-4h10zM8 0C6 0 5 1 4 3c-2 3 1 9 5 10 4 2 8 0 11-3l1-7c0-3-2-3-4-3H8z"/>
            <path d="M30 3l-2 1v3l2 3a6 6 0 0 0 3 2h1l4-1 3-4-1-4H30zm9-3c2 0 3 1 4 3 2 3-1 9-5 10-4 2-8 0-11-3l-1-7c0-3 2-3 4-3h9z"/>
            <path d="M5 2H1v3l2-1h2V2"/>
            <path d="M42 2h4v3l-2-1h-2V2"/>
            <path d="M27 3l-4-2-3 2v1l2-1h3l2 1V3"/>
          </g>
        </g>
      </g>
    </g>
    <g transform="rotate(-8 271 59)" fill="#FFF">
      <use filter="url(#H)" xlink:href="#I"/>
      <use xlink:href="#I"/>
    </g>
    <g transform="rotate(-8 133 39)" fill="#FFF">
      <use filter="url(#J)" xlink:href="#K"/>
      <use xlink:href="#K"/>
    </g>
    <path d="M0 139v363" stroke="#979797" stroke-width="2" stroke-linecap="square"/>
    <use fill="#000" filter="url(#L)" xlink:href="#M"/>
    <path stroke="#979797" d="M20 193h294v39H20z"/>
    <use fill="#000" filter="url(#N)" xlink:href="#O"/>
    <path stroke="#979797" d="M20 395h294v39H20z"/>
    <use fill="#000" filter="url(#P)" xlink:href="#Q"/>
    <path stroke="#979797" d="M20 294h243v39H20z"/>
    <text font-family="ArialMT, Arial" font-size="16" fill="#4A4A4A">
      <tspan x="19" y="173">Where do you want to go next?</tspan>
    </text>
    <text font-family="ArialMT, Arial" font-size="16" fill="#9B9B9B">
      <tspan x="32" y="218">e.g. Los Angeles</tspan>
    </text>
    <text font-family="ArialMT, Arial" font-size="16" fill="#9B9B9B">
      <tspan x="32" y="318">ASAP…</tspan>
    </text>
    <text font-family="ArialMT, Arial" font-size="16" fill="#9B9B9B">
      <tspan x="32" y="421">As long as possible!</tspan>
    </text>
    <text font-family="ArialMT, Arial" font-size="16" fill="#4A4A4A">
      <tspan x="19" y="375">How long do you want to go for?</tspan>
    </text>
    <text font-family="ArialMT, Arial" font-size="16" fill="#4A4A4A">
      <tspan x="19" y="274">When do you want to go?</tspan>
    </text>
    <use fill="#000" filter="url(#R)" xlink:href="#S"/>
    <use fill="#4A90E2" xlink:href="#S"/>
    <path stroke="#3876BE" d="M275 294h39v39h-39z"/>
    <use fill="#000" filter="url(#T)" xlink:href="#U"/>
    <use fill="#4A90E2" xlink:href="#U"/>
    <path stroke="#3876BE" d="M275 395h39v39h-39z"/>
    <g transform="translate(19 462)">
      <use fill="#000" filter="url(#V)" xlink:href="#W"/>
      <use fill="#4A90E2" xlink:href="#W"/>
      <path stroke="#3876BE" d="M1 1h294v39H1z"/>
    </g>
    <text font-family="Arial-BoldMT, Arial" font-size="20" font-weight="bold" fill="#FFF" transform="translate(19 462)">
      <tspan x="95.3398438" y="27">Find a trip!</tspan>
    </text>
    <path d="M290 312h-2v2h2v-2zm5 0h-2v2h2v-2zm5 0h-2v2h2v-2zm3-9h-2v-2h-2v2h-10v-2h-2v2h-2c-1 0-2 1-2 3v17l2 2h18l2-2v-17c0-2-1-3-2-3zm0 20h-18v-14h18v14z" fill="#FFF" fill-rule="nonzero"/>
    <path d="M279 299h29v29h-29z"/>
    <path fill="#FFF" d="M295 422l-10-15h20z"/>
  </g>
</svg>
