<?xml version="1.0" encoding="iso-8859-1"?>
<!-- Generator: Adobe Illustrator 19.0.0, SVG Export Plug-In . SVG Version: 6.00 Build 0)  -->
<svg version="1.1" id="Layer_1" xmlns="http://www.w3.org/2000/svg" xmlns:xlink="http://www.w3.org/1999/xlink" x="0px" y="0px"
	 viewBox="0 0 512.001 512.001" style="enable-background:new 0 0 512.001 512.001;" xml:space="preserve">
<g>
	<path style="fill:#48ADE1;" d="M360.294,17.45l-24.229-2.459h-0.858v33.017h0.858l24.229-2.459c2.445,0,4.426-1.982,4.426-4.428
		V21.879C364.721,19.433,362.739,17.45,360.294,17.45z"/>
	<path style="fill:#48ADE1;" d="M307.652,56.876l-27.402,8.554l23.175,40.138c3.866,6.698,12.431,8.993,19.129,5.126
		c6.7-3.867,8.993-12.432,5.127-19.13L307.652,56.876z"/>
</g>
<path style="fill:#D1D2D4;" d="M158.545,34.183c-0.528,0.544-7.902,8.283-7.902,15.485v10.829v0.708
	c0.068,2.124,0.869,8.383,7.953,8.383h47.484v54.627h51.652V72.46l77.475-24.186V15.071
	C335.207,15.071,234.067-29.28,158.545,34.183z"/>
<g>
	<path style="fill:#B3B7BC;" d="M219.254,69.59h-1.934h-7.589h-1.934c-0.588,0-1.16,0.061-1.717,0.162v54.466h22.779v-17.701V97.54
		V79.196C228.859,73.89,224.56,69.59,219.254,69.59z"/>
	<path style="fill:#B3B7BC;" d="M173.422,61.207v-0.708V49.67c0-7.203,7.376-14.941,7.904-15.485
		c27.79-23.354,59.046-32.099,87.457-33.836c-33.64-1.995-74.764,4.026-110.238,33.836c-0.528,0.544-7.902,8.283-7.902,15.485
		v10.829v0.708c0.068,2.124,0.869,8.383,7.953,8.383h22.78C174.294,69.59,173.493,63.331,173.422,61.207z"/>
</g>
<path style="fill:#34394C;" d="M206.971,147.489H229.8h31.24c3.341,0,6.492,0.78,9.317,2.133v-26.331
	c0-8.15-6.605-14.757-14.757-14.757h-47.513c-8.15,0-14.759,6.607-14.759,14.757v24.199h13.643V147.489z"/>
<path style="fill:#282F44;" d="M231.789,108.533h-23.702c-8.15,0-14.759,6.607-14.759,14.757v24.199h13.643h10.062V123.29
	C217.032,115.14,223.639,108.533,231.789,108.533z"/>
<path style="fill:#34394C;" d="M306.698,485.368h-24.03H261.04h-19.225h-34.843h-21.628h-12.018h-4.415
	c-1.394,0-2.753-0.145-4.072-0.397v12.272c0,8.148,6.605,14.757,14.757,14.757h116.42c8.148,0,14.757-6.608,14.757-14.757v-12.272
	C309.45,485.224,308.091,485.368,306.698,485.368z"/>
<g>
	<path style="fill:#282F44;" d="M310.772,484.971c-1.322,0.253-2.68,0.397-4.075,0.397h4.075V484.971z"/>
	<path style="fill:#282F44;" d="M188.54,497.243v-11.876h-3.197h-12.018h-4.415c-1.394,0-2.753-0.145-4.072-0.397v12.272
		c0,8.148,6.605,14.757,14.757,14.757h23.702C195.149,512,188.54,505.392,188.54,497.243z"/>
</g>
<path style="fill:#48ADE1;" d="M282.668,220.996v-52.999c0-11.944-9.683-21.628-21.628-21.628h-31.24h-22.828h-16.463
	c0,0-5.641,0.167-10.239,3.676c-0.87,0.773-1.733,1.596-2.582,2.505c-0.147,0.176-0.292,0.334-0.437,0.476
	c-17.547,19.349-29.968,67.209-29.968,123.211v189.745c0,11.944,9.683,21.629,21.628,21.629h4.415h12.018h21.628h34.845h19.225
	h21.628h24.03c11.945,0,21.628-9.685,21.628-21.629V276.632C328.326,249.094,308.698,226.145,282.668,220.996z"/>
<path style="fill:#299ECC;" d="M170.984,465.98V276.235c0-56.002,12.422-103.861,29.969-123.211c0.145-0.141,0.29-0.3,0.438-0.476
	c0.848-0.909,1.711-1.732,2.582-2.505c4.597-3.508,10.236-3.676,10.236-3.676h-7.238h-16.463c0,0-5.641,0.167-10.239,3.676
	c-0.87,0.773-1.733,1.596-2.582,2.505c-0.147,0.176-0.292,0.334-0.437,0.476c-17.547,19.349-29.968,67.209-29.968,123.211V465.98
	c0,11.944,9.683,21.629,21.628,21.629h4.415h12.018h7.271C180.669,487.609,170.984,477.924,170.984,465.98z"/>
<polyline style="fill:#FFCE54;" points="264.434,436.401 147.283,436.401 147.283,276.235 328.326,276.235 328.326,436.401 
	292.068,436.401 "/>
<rect x="147.28" y="276.24" style="fill:#EAB339;" width="23.706" height="160.162"/>
<circle style="fill:#EE9A04;" cx="237.803" cy="356.108" r="42.573"/>
<g>
	<path style="fill:#6CC3E5;" d="M190.507,171.779h-24.976c-2.311,5.043-4.451,10.668-6.39,16.805h31.366
		c4.64,0,8.402-3.762,8.402-8.402S195.148,171.779,190.507,171.779z"/>
	<path style="fill:#6CC3E5;" d="M152.145,217.708h29.28c4.64,0,8.402-3.762,8.402-8.402s-3.762-8.402-8.402-8.402h-25.743
		C154.362,206.234,153.178,211.849,152.145,217.708z"/>
	<path style="fill:#6CC3E5;" d="M173.952,230.027H150.25c-0.724,5.441-1.324,11.051-1.791,16.805h25.493
		c4.642,0,8.402-3.762,8.402-8.402C182.354,233.789,178.592,230.027,173.952,230.027z"/>
</g>
<g>
</g>
<g>
</g>
<g>
</g>
<g>
</g>
<g>
</g>
<g>
</g>
<g>
</g>
<g>
</g>
<g>
</g>
<g>
</g>
<g>
</g>
<g>
</g>
<g>
</g>
<g>
</g>
<g>
</g>
</svg>
