<?xml version="1.0" encoding="iso-8859-1"?>
<!-- Generator: Adobe Illustrator 19.0.0, SVG Export Plug-In . SVG Version: 6.00 Build 0)  -->
<svg version="1.1" id="Layer_1" xmlns="http://www.w3.org/2000/svg" xmlns:xlink="http://www.w3.org/1999/xlink" x="0px" y="0px"
	 viewBox="0 0 511.999 511.999" style="enable-background:new 0 0 511.999 511.999;" xml:space="preserve">
<rect x="295.025" y="360.726" style="fill:#FFCE54;" width="31.573" height="37.795"/>
<path style="fill:#EE9A04;" d="M348.544,348.129c0-8.717-7.068-15.786-15.788-15.786h-43.883c-8.72,0-15.786,7.068-15.786,15.786
	c0,8.719,7.066,15.788,15.786,15.788h43.883C341.474,363.917,348.544,356.848,348.544,348.129z"/>
<path style="fill:#ED7E06;" d="M293.579,348.129c0-8.717,7.066-15.786,15.786-15.786h-20.493c-8.72,0-15.786,7.068-15.786,15.786
	c0,8.719,7.066,15.788,15.786,15.788h20.493C300.645,363.917,293.579,356.848,293.579,348.129z"/>
<path style="fill:#3D4359;" d="M487.312,283.498c-1.532,0-3.084-0.443-4.451-1.366c-3.645-2.462-4.603-7.412-2.141-11.058
	c5.532-8.19,8.456-17.766,8.456-27.694c0-27.318-22.224-49.541-49.539-49.541H65.468C29.369,193.838,0,164.466,0,128.363
	c0-36.1,29.369-65.47,65.468-65.47H289.05c27.317,0,49.541-22.225,49.541-49.543c0-4.399,3.565-7.964,7.964-7.964
	c4.398,0,7.964,3.566,7.964,7.964c0,36.101-29.371,65.472-65.47,65.472H65.468c-27.316,0-49.539,22.223-49.539,49.541
	c0,27.319,22.223,49.545,49.539,49.545h374.169c36.099,0,65.468,29.37,65.468,65.47c0,13.117-3.869,25.777-11.185,36.611
	C492.381,282.269,489.869,283.498,487.312,283.498z"/>
<path style="fill:#EE9A04;" d="M453.17,270.589l5.643,34.626c0.039,0.253,0.044,0.505,0.074,0.757l19.169-3.123
	c9.387-1.53,16.04-8.65,14.859-15.908l-1.606-9.852c-1.182-7.255-9.753-11.897-19.139-10.368l-19.169,3.121
	C453.054,270.096,453.129,270.335,453.17,270.589z"/>
<path style="fill:#48ADE1;" d="M487.812,438.596l-27.88-176.734c-0.34-2.157-1.761-3.99-3.766-4.855
	c-39.011-16.869-80.385-25.422-122.97-25.422c-64.114,0-125.847,19.331-178.522,55.905c-52.544,36.48-93.404,88.252-118.162,149.716
	c-0.791,1.965-0.555,4.193,0.63,5.947c1.185,1.754,3.163,2.807,5.281,2.807h439.096c1.863,0,3.634-0.816,4.842-2.232
	C487.574,442.311,488.103,440.435,487.812,438.596z M187.7,394.916c12.181-32.71,33.25-60.646,60.93-80.787
	c28.322-20.609,61.605-31.503,96.25-31.503c22.931,0,45.17,4.73,66.099,14.058l10.737,68.059l-32.887,30.174H187.7L187.7,394.916z"
	/>
<path style="fill:#2595B7;" d="M57.634,443.154c-1.184-1.753-1.421-3.982-0.629-5.947c24.758-61.465,65.617-113.236,118.162-149.717
	c49.825-34.592,107.75-53.75,168.13-55.725c-3.36-0.107-6.726-0.181-10.101-0.181c-64.114,0-125.847,19.331-178.522,55.905
	C102.13,323.971,61.27,375.742,36.512,437.207c-0.791,1.965-0.555,4.193,0.63,5.947c1.185,1.754,3.163,2.807,5.281,2.807h20.493
	C60.799,445.959,58.82,444.908,57.634,443.154z"/>
<path style="fill:#828186;" d="M504.036,506.613H15.557c-4.4,0-7.964-3.565-7.964-7.964c0-4.4,3.565-7.964,7.964-7.964h488.477
	c4.399,0,7.964,3.565,7.964,7.964C512,503.048,508.433,506.613,504.036,506.613z"/>
<path style="fill:#FF3632;" d="M124.192,311.537c5.305,3.986,11.892,6.36,19.04,6.36c17.535,0,31.746-14.212,31.746-31.746
	c0-3.704-0.645-7.255-1.813-10.559c-6.274,3.739-12.445,7.699-18.49,11.897C144.018,294.888,133.851,302.927,124.192,311.537z"/>
<path style="fill:#F22A2A;" d="M146.294,293.524c-2.391,1.78-4.76,3.586-7.1,5.431c-0.124,0.098-0.246,0.199-0.372,0.295
	c-4.999,3.954-9.877,8.048-14.63,12.285c4.026,3.025,8.794,5.115,13.981,5.95c11.494-10.824,23.773-20.798,36.766-29.836
	c0.023-0.498,0.038-0.996,0.038-1.499c0-3.704-0.645-7.255-1.813-10.559c-3.107,1.852-6.187,3.758-9.24,5.72
	c-0.34,0.219-0.676,0.443-1.016,0.663c-1.188,0.771-2.376,1.544-3.556,2.331c-1.567,1.047-3.126,2.107-4.678,3.184
	c-2.43,1.686-4.826,3.416-7.203,5.168C147.077,292.946,146.684,293.234,146.294,293.524z"/>
<path style="fill:#2F98C1;" d="M491.302,435.751h-17.563H68.856H45.865H28.3c-7.037,0-12.743,5.706-12.743,12.743v6.087
	c0,7.037,5.706,12.743,12.743,12.743h17.563h427.875h17.563c7.037,0,12.743-5.706,12.743-12.743v-6.087
	C504.045,441.457,498.339,435.751,491.302,435.751z"/>
<path style="fill:#1E839B;" d="M36.05,454.581v-6.087c0-7.037,5.706-12.743,12.743-12.743h-2.93H28.3
	c-7.037,0-12.743,5.706-12.743,12.743v6.087c0,7.037,5.706,12.743,12.743,12.743h17.563h2.93
	C41.756,467.324,36.05,461.618,36.05,454.581z"/>
<g>
</g>
<g>
</g>
<g>
</g>
<g>
</g>
<g>
</g>
<g>
</g>
<g>
</g>
<g>
</g>
<g>
</g>
<g>
</g>
<g>
</g>
<g>
</g>
<g>
</g>
<g>
</g>
<g>
</g>
</svg>
