<?xml version="1.0" encoding="iso-8859-1"?>
<!-- Generator: Adobe Illustrator 19.0.0, SVG Export Plug-In . SVG Version: 6.00 Build 0)  -->
<svg version="1.1" id="Layer_1" xmlns="http://www.w3.org/2000/svg" xmlns:xlink="http://www.w3.org/1999/xlink" x="0px" y="0px"
	 viewBox="0 0 512 512" style="enable-background:new 0 0 512 512;" xml:space="preserve">
<path style="fill:#FF423E;" d="M27.105,510.389c-7.244,0-14.053-2.821-19.175-7.942c-10.574-10.574-10.574-27.777,0-38.35
	c5.121-5.121,11.932-7.942,19.175-7.942s14.052,2.821,19.174,7.942c10.573,10.574,10.573,27.777,0,38.35
	C41.158,507.569,34.348,510.389,27.105,510.389z M27.105,472.334c-2.922,0-5.669,1.138-7.735,3.205
	c-4.265,4.264-4.265,11.204,0,15.467c2.066,2.067,4.813,3.205,7.735,3.205s5.668-1.138,7.734-3.205
	c4.264-4.264,4.264-11.204,0-15.467C32.773,473.472,30.027,472.334,27.105,472.334z"/>
<path style="fill:#C12323;" d="M17.475,488.45c-2.224-4.141-1.594-9.422,1.896-12.912c2.066-2.067,4.813-3.205,7.735-3.205
	c1.835,0,3.598,0.45,5.17,1.294c3.223-1.32,6.703-2.014,10.289-2.014c3.408,0,6.719,0.632,9.805,1.827
	c-1.319-3.406-3.346-6.6-6.09-9.345c-5.121-5.121-11.932-7.942-19.174-7.942c-7.244,0-14.053,2.821-19.175,7.942
	c-10.574,10.574-10.574,27.777,0,38.35c2.712,2.712,5.899,4.771,9.371,6.115C14.798,502.102,14.853,494.872,17.475,488.45z"/>
<path style="fill:#BDBEC0;" d="M454.2,56.176c-5.53-5.53-15.206-4.82-21.61,1.586l-22.265,22.265L140.806,349.545l-0.013,0.013
	c0.069,0.066,0.143,0.12,0.21,0.188l19.628,19.628c0.068,0.068,0.123,0.14,0.188,0.21l0.013-0.013l120.521-120.521l20.302-20.302
	l128.696-128.695l22.266-22.266C459.02,71.382,459.73,61.707,454.2,56.176z"/>
<path style="fill:#FF423E;" d="M202.087,327.917l-19.628-19.628c-5.309-5.309-13.916-5.309-19.223,0L35.935,435.588
	c-8.176,8.174-8.176,21.429,0,29.605l9.248,9.248c8.176,8.176,21.429,8.176,29.603,0l127.3-127.301
	C207.396,341.833,207.396,333.226,202.087,327.917z"/>
<path id="SVGCleanerId_0" style="fill:#FC5E5E;" d="M202.087,327.917l-19.628-19.628c-5.309-5.309-13.916-5.309-19.223,0
	l-21.229,21.227l38.855,38.852l21.225-21.227C207.396,341.833,207.396,333.226,202.087,327.917z"/>
<path style="fill:#C12323;" d="M52.472,449.969l127.3-127.299c3.716-3.717,9.049-4.821,13.733-3.334l-11.047-11.047
	c-5.309-5.309-13.916-5.309-19.223,0l-127.3,127.299c-8.176,8.174-8.176,21.429,0,29.605l9.248,9.248
	c1.989,1.988,4.279,3.483,6.722,4.504C44.325,470.734,44.5,457.941,52.472,449.969z"/>
<g>
	<path id="SVGCleanerId_0_1_" style="fill:#FC5E5E;" d="M202.087,327.917l-19.628-19.628c-5.309-5.309-13.916-5.309-19.223,0
		l-21.229,21.227l38.855,38.852l21.225-21.227C207.396,341.833,207.396,333.226,202.087,327.917z"/>
</g>
<path style="fill:#C64040;" d="M157.467,344.977l22.306-22.306c3.716-3.717,9.049-4.821,13.733-3.334l-11.047-11.047
	c-5.309-5.309-13.916-5.309-19.223,0l-21.229,21.227L157.467,344.977z"/>
<g>
	<path style="fill:#48ADE1;" d="M485.438,133.955c-2.07,0-4.14-0.79-5.72-2.369L378.792,30.659c-3.159-3.16-3.159-8.282,0-11.441
		c3.159-3.158,8.283-3.158,11.44,0l100.926,100.927c3.159,3.16,3.159,8.282,0,11.441
		C489.58,133.165,487.509,133.955,485.438,133.955z"/>
	<path style="fill:#48ADE1;" d="M465.663,153.728c-2.07,0-4.14-0.79-5.72-2.369L359.018,50.435c-3.16-3.16-3.16-8.282,0-11.441
		c3.159-3.158,8.282-3.158,11.44,0l100.925,100.925c3.159,3.16,3.159,8.282,0,11.441
		C469.805,152.939,467.734,153.728,465.663,153.728z"/>
	<path style="fill:#48ADE1;" d="M445.889,173.504c-2.07,0-4.14-0.79-5.72-2.369L339.244,70.208c-3.159-3.16-3.159-8.282,0-11.441
		s8.283-3.157,11.44,0l100.926,100.927c3.159,3.16,3.159,8.282,0,11.441C450.031,172.714,447.96,173.504,445.889,173.504z"/>
	<path style="fill:#48ADE1;" d="M426.114,193.277c-2.07,0-4.14-0.79-5.72-2.369L319.469,89.984c-3.16-3.16-3.16-8.282,0-11.441
		c3.159-3.158,8.282-3.158,11.441,0l100.925,100.925c3.159,3.16,3.159,8.282,0,11.441
		C430.256,192.487,428.185,193.277,426.114,193.277z"/>
	<path style="fill:#48ADE1;" d="M506.002,89.296l-39.774-10.658l39.774-10.656c4.316-1.155,6.876-5.592,5.721-9.907
		c-1.156-4.317-5.594-6.882-9.907-5.721l-39.771,10.655l29.115-29.115c3.159-3.159,3.159-8.282,0-11.44s-8.282-3.159-11.44,0.001
		l-28.929,28.929c-0.042-0.011-0.085-0.023-0.128-0.032l10.598-39.552c1.155-4.316-1.405-8.752-5.721-9.908
		c-4.314-1.158-8.751,1.404-9.907,5.72l-10.654,39.761c0,0.003-0.001,0.006-0.002,0.01L424.32,7.61
		c-1.156-4.316-5.592-6.881-9.909-5.72c-4.314,1.156-6.876,5.593-5.72,9.908l11.569,43.174c0.932,3.479,4,5.794,7.412,5.965
		c-0.223,0.95-0.352,1.936-0.352,2.954v6.316c0,7.148,5.794,12.943,12.943,12.943h6.497c-0.387,3.874,2.064,7.571,5.949,8.612
		l49.105,13.158c0.701,0.189,1.407,0.278,2.1,0.278c3.571,0,6.841-2.384,7.808-5.998C512.878,94.887,510.319,90.452,506.002,89.296z
		"/>
</g>
<g>
</g>
<g>
</g>
<g>
</g>
<g>
</g>
<g>
</g>
<g>
</g>
<g>
</g>
<g>
</g>
<g>
</g>
<g>
</g>
<g>
</g>
<g>
</g>
<g>
</g>
<g>
</g>
<g>
</g>
</svg>
